<?xml version="1.0" encoding="UTF-8" standalone="no"?><!DOCTYPE svg PUBLIC "-//W3C//DTD SVG 1.1//EN" "http://www.w3.org/Graphics/SVG/1.1/DTD/svg11.dtd"><svg width="100%" height="100%" viewBox="0 0 512 512" version="1.1" xmlns="http://www.w3.org/2000/svg" xmlns:xlink="http://www.w3.org/1999/xlink" xml:space="preserve" xmlns:serif="http://www.serif.com/" style="fill-rule:evenodd;clip-rule:evenodd;stroke-linejoin:round;stroke-miterlimit:2;"><g><path d="M210.85,256.58c-24.665,0 -44.72,20.207 -44.72,45.04c0,24.831 20.055,45.039 44.72,45.039c24.664,0 44.72,-20.208 44.72,-45.04c0,-24.832 -20.056,-45.04 -44.72,-45.04m0,114.854c-38.218,0 -69.32,-31.315 -69.32,-69.814c0,-38.499 31.102,-69.813 69.32,-69.813c38.218,0 69.319,31.314 69.319,69.813c0,38.5 -31.101,69.814 -69.32,69.814"/><path d="M183.448,102.52c-10.454,0 -18.965,8.572 -18.965,19.1c0,10.53 8.511,19.102 18.965,19.102c10.455,0 18.966,-8.572 18.966,-19.101c0,-10.53 -8.511,-19.101 -18.966,-19.101m0,62.976c-24.024,0 -43.564,-19.68 -43.564,-43.875c0,-24.196 19.54,-43.875 43.564,-43.875c24.025,0 43.556,19.679 43.556,43.875c0,24.196 -19.53,43.875 -43.556,43.875"/><path d="M380.822,316.455c-10.454,0 -18.965,8.572 -18.965,19.1c0,10.53 8.51,19.102 18.965,19.102c10.455,0 18.966,-8.572 18.966,-19.101c0,-10.53 -8.511,-19.101 -18.966,-19.101m0,62.976c-24.024,0 -43.564,-19.68 -43.564,-43.875c0,-24.196 19.54,-43.875 43.564,-43.875c24.025,0 43.556,19.679 43.556,43.875c0,24.196 -19.531,43.875 -43.556,43.875"/><path d="M289.62,482.989c-3.166,-29.762 -28.232,-53.025 -58.62,-53.025c-26.05,-0 -48.188,17.003 -55.928,40.81c-81.618,-30.792 -141.475,-106.734 -149.503,-197.481c3.821,0.9 7.708,1.519 11.701,1.519c28.928,-0 52.47,-23.7 52.47,-52.843c0,-28.152 -21.984,-51.159 -49.55,-52.695c26.59,-69.377 85.233,-124.103 159.25,-142.849c12.399,16.97 31.766,27.532 52.855,28.532c-0.274,2.678 -0.414,5.368 -0.418,8.06c0,43.8 35.39,79.434 78.871,79.434c3.666,0 7.327,-0.265 10.955,-0.793c5.682,38.912 39.44,68.517 79.855,67.815c-0.548,3.422 -0.822,6.882 -0.82,10.348c0,35.963 28.707,65.304 64.252,66.015c-14.603,101.904 -95.443,182.222 -195.37,197.153m-33.61,2.527c-4.486,0 -8.954,-0.166 -13.407,-0.422c-1.385,-0.082 -2.747,-0.214 -4.124,-0.313c-3.108,-0.24 -6.215,-0.52 -9.307,-0.884c-1.55,-0.182 -3.099,-0.38 -4.632,-0.595c-3.01,-0.413 -5.994,-0.891 -8.979,-1.428c-1.451,-0.256 -2.902,-0.496 -4.346,-0.777c-3.654,-0.73 -7.29,-1.548 -10.905,-2.452c-0.599,-0.149 -1.214,-0.264 -1.82,-0.421c4.591,-13.725 17.44,-23.486 32.51,-23.486c17.589,0 32.135,13.378 34.136,30.563c-3.034,0.124 -6.068,0.215 -9.126,0.215m-218.74,-291.626c15.366,0 27.87,12.594 27.87,28.078c0,15.475 -12.504,28.069 -27.87,28.069c-4.969,0 -9.142,-1.371 -12.438,-3.097c0.114,-4.682 0.213,-9.373 0.598,-13.997c0.041,-0.471 0.115,-0.942 0.156,-1.412c0.5,-5.55 1.222,-11.05 2.115,-16.5c0.18,-1.098 0.361,-2.205 0.55,-3.303c1.041,-5.839 2.255,-11.62 3.722,-17.317c1.739,-0.34 3.51,-0.52 5.297,-0.52m473.885,78.963c0.318,-3.952 -1.278,-7.825 -4.289,-10.405c-2.994,-2.559 -7.044,-3.529 -10.872,-2.602c-3.305,0.81 -6.568,1.223 -9.692,1.223c-22.59,0 -40.965,-18.498 -40.965,-41.25c0,-6.911 1.738,-13.75 5.026,-19.786c2.411,-4.426 1.92,-9.893 -1.262,-13.799c-3.152,-3.897 -8.392,-5.484 -13.177,-3.989c-5.24,1.645 -10.701,2.481 -16.194,2.478c-29.92,0 -54.265,-24.527 -54.265,-54.66c0,-0.744 0.058,-1.479 0.107,-2.205l0.065,-1.115c0.254,-4.148 -1.593,-8.158 -4.911,-10.661c-3.306,-2.487 -7.656,-3.138 -11.545,-1.726c-6.043,2.205 -12.242,3.32 -18.433,3.32c-29.92,0 -54.272,-24.519 -54.272,-54.66c0,-5.922 1.008,-11.867 3.009,-17.673c1.442,-4.225 0.515,-8.913 -2.427,-12.271c-2.939,-3.342 -7.476,-4.832 -11.824,-3.882c-20.113,4.435 -39.874,-5.243 -49.296,-22.718c-2.599,-4.814 -8.01,-7.34 -13.365,-6.201c-93.13,19.926 -165.942,90.814 -192.073,179.678c-0.172,0.42 -0.394,0.825 -0.525,1.263c-0.353,1.239 -0.59,2.502 -0.927,3.75c-1.098,4.046 -2.132,8.125 -3.033,12.238c-0.361,1.651 -0.656,3.303 -0.984,4.963c-0.781,3.892 -1.471,7.802 -2.067,11.726c-0.188,1.264 -0.41,2.527 -0.582,3.79c-0.677,5.038 -1.205,10.095 -1.582,15.165c-0.1,1.195 -0.165,2.393 -0.24,3.591c-0.336,5.31 -0.558,10.636 -0.558,16.004c0,0.099 0.017,0.884 0.025,1.065l0,0.033c0.485,115.283 76.453,212.952 180.612,245.33c0.066,0.026 0.123,0.075 0.189,0.1c0.746,0.231 1.517,0.38 2.263,0.603c4.542,1.359 9.122,2.587 13.734,3.683c1.452,0.347 2.903,0.702 4.354,1.016c5.428,1.197 10.906,2.27 16.448,3.113c0.525,0.082 1.042,0.124 1.567,0.198c5.091,0.743 10.24,1.305 15.423,1.743c1.451,0.115 2.886,0.23 4.337,0.33c5.642,0.371 11.324,0.636 17.056,0.636c3.657,0 7.355,-0.1 11.15,-0.273c2.789,-0.124 5.544,-0.338 8.307,-0.553c0.877,-0.066 1.706,-0.09 2.6,-0.173c0.032,0 0.065,-0.017 0.098,-0.025c122.813,-10.835 223.208,-110.757 232.99,-236.412"/></g></svg>