<svg viewBox="0 0 91 91" xml:space="preserve" xmlns="http://www.w3.org/2000/svg"><path d="M33.231 35.435C31.863 45.7 21.726 50.429 10.07 53.249l3.214-6.187-5.622-3.749 2.942-7.322-5.909-4.93 3.236-6.09-5.701-4.079c11.653-2.823 21.877-3.967 28.744 5.242" fill="none" class="fill-fae58f"></path><path d="M10.07 55.479a2.23 2.23 0 0 1-1.981-3.26l2.294-4.408-3.958-2.641a2.23 2.23 0 0 1-.834-2.688l2.338-5.816-4.663-3.89a2.232 2.232 0 0 1-.542-2.76l2.319-4.366-4.11-2.942a2.229 2.229 0 0 1 .773-3.982c11.369-2.754 23.13-4.554 31.058 6.077a2.232 2.232 0 0 1-3.578 2.667c-4.931-6.615-11.801-7.337-21.576-5.471l1.618 1.159a2.228 2.228 0 0 1 .672 2.861l-2.384 4.492 4.517 3.769a2.234 2.234 0 0 1 .642 2.546l-2.268 5.639 4.114 2.744a2.233 2.233 0 0 1 .744 2.885l-.857 1.646c10.416-3.284 15.729-7.983 16.611-14.597a2.221 2.221 0 0 1 2.505-1.917 2.23 2.23 0 0 1 1.917 2.505C33.754 48.397 20.452 53.035 10.593 55.42a2.376 2.376 0 0 1-.523.059z" fill="#000000" class="fill-434b56"></path><path d="M33.231 35.435c5.916 8.504 17.091 8.064 28.745 5.241l-5.691-4.033 3.28-5.906-5.963-5.164 2.996-7.087-5.668-3.937 3.206-6.234c-11.659 2.827-21.266 6.489-23.157 17.819" fill="none" class="fill-fae58f"></path><path d="M48.998 44.738c-6.711 0-13.308-1.86-17.598-8.029a2.228 2.228 0 0 1 .557-3.105 2.229 2.229 0 0 1 3.105.557c3.868 5.558 10.582 7.282 21.457 5.383l-1.525-1.08a2.23 2.23 0 0 1-.659-2.904l2.399-4.323-4.592-3.977a2.231 2.231 0 0 1-.594-2.555l2.29-5.419-4.181-2.903a2.23 2.23 0 0 1-.711-2.853l.907-1.767c-9.542 2.82-15.316 6.605-16.672 14.74a2.233 2.233 0 0 1-2.569 1.833 2.23 2.23 0 0 1-1.833-2.567c2.181-13.08 13.464-16.865 24.83-19.623a2.229 2.229 0 0 1 2.509 3.188l-2.312 4.497 4.063 2.822a2.23 2.23 0 0 1 .782 2.701l-2.365 5.594 4.736 4.102a2.23 2.23 0 0 1 .49 2.77l-2.31 4.159 4.06 2.878c.715.505 1.066 1.381.901 2.24s-.813 1.543-1.663 1.748c-4.058.982-8.808 1.893-13.502 1.893z" fill="#000000" class="fill-434b56"></path><path d="M25.121 34.708a2.233 2.233 0 0 1-.524-4.401l14.481-3.509a2.23 2.23 0 1 1 1.051 4.337l-14.482 3.51a2.283 2.283 0 0 1-.526.063z" fill="#000000" class="fill-434b56"></path><path d="M61.976 70.822c-3.743 9.659-14.713 11.863-26.704 11.863l4.584-5.263-4.584-4.963 4.584-6.424-4.584-6.185 4.584-5.155-4.584-5.305c11.991 0 22.194 1.29 26.704 11.86" fill="none" class="fill-f9ba8f"></path><path d="M35.271 84.916a2.232 2.232 0 0 1-1.683-3.697l3.27-3.753-3.226-3.493a2.232 2.232 0 0 1-.177-2.812l3.641-5.101-3.618-4.883a2.23 2.23 0 0 1 .125-2.811l3.286-3.693-3.307-3.823a2.234 2.234 0 0 1 1.689-3.692c11.697 0 23.553 1.021 28.756 13.216a2.233 2.233 0 0 1-1.178 2.928 2.228 2.228 0 0 1-2.926-1.178c-3.238-7.586-9.74-9.903-19.68-10.393l1.301 1.502a2.231 2.231 0 0 1-.021 2.942l-3.38 3.8 3.505 4.73a2.23 2.23 0 0 1 .023 2.625l-3.53 4.946 3.353 3.629c.772.838.792 2.121.044 2.98l-1.231 1.412c11.023-.715 17.141-3.97 19.587-10.285a2.234 2.234 0 0 1 2.886-1.274 2.233 2.233 0 0 1 1.276 2.887c-4.615 11.913-18.639 13.291-28.785 13.291z" fill="#000000" class="fill-434b56"></path><path d="M61.978 70.822c3.743 9.659 14.708 11.863 26.7 11.863l-4.581-5.263 4.581-4.963-4.581-6.424 4.581-6.185-4.581-5.155 4.581-5.305c-11.992 0-22.19 1.29-26.7 11.86" fill="none" class="fill-f9ba8f"></path><path d="M88.678 84.916c-10.146 0-24.166-1.378-28.781-13.288a2.234 2.234 0 0 1 1.275-2.887 2.234 2.234 0 0 1 2.887 1.274c2.447 6.315 8.563 9.57 19.585 10.285l-1.229-1.412a2.232 2.232 0 0 1 .042-2.979l3.353-3.631-3.529-4.946a2.232 2.232 0 0 1 .024-2.625l3.503-4.73-3.378-3.8a2.23 2.23 0 0 1-.021-2.94l1.299-1.504c-9.938.489-16.44 2.807-19.678 10.393a2.228 2.228 0 0 1-2.926 1.178 2.233 2.233 0 0 1-1.178-2.928C65.129 48.181 76.983 47.16 88.678 47.16a2.23 2.23 0 0 1 1.688 3.69l-3.303 3.825 3.282 3.693c.701.789.753 1.961.124 2.811l-3.615 4.883 3.641 5.101c.613.861.54 2.033-.177 2.81l-3.227 3.495 3.269 3.753a2.23 2.23 0 0 1-1.682 3.695z" fill="#000000" class="fill-434b56"></path><path d="M69.691 68.269H54.793a2.231 2.231 0 0 1 0-4.462h14.898a2.231 2.231 0 1 1 0 4.462z" fill="#000000" class="fill-434b56"></path></svg>
